<mxfile host="app.diagrams.net" agent="Mozilla/5.0 (Windows NT 10.0; Win64; x64) AppleWebKit/537.36 (KHTML, like Gecko) Chrome/133.0.0.0 Safari/537.36 OPR/118.0.0.0" version="26.2.14">
  <diagram id="MM96hLA5e743azPeom6d" name="PÃ¡gina-1">
    <mxGraphModel dx="230" dy="-1648" grid="1" gridSize="10" guides="1" tooltips="1" connect="1" arrows="1" fold="1" page="0" pageScale="1" pageWidth="827" pageHeight="1169" background="none" math="0" shadow="0">
      <root>
        <mxCell id="0" />
        <mxCell id="1" parent="0" />
        <mxCell id="node15" value="&lt;p style=&quot;margin:0px;margin-top:4px;text-align:center;&quot;&gt;&lt;b&gt;AutomaticUpdaterTask&lt;/b&gt;&lt;/p&gt;&lt;hr size=&quot;1&quot;/&gt;&lt;p style=&quot;margin:0 0 0 4px;line-height:1.6;&quot;&gt;+ AutomaticUpdaterTask(): &lt;/p&gt;&lt;hr size=&quot;1&quot;/&gt;&lt;p style=&quot;margin:0 0 0 4px;line-height:1.6;&quot;&gt;+ call(): String[]&lt;/p&gt;" style="verticalAlign=top;align=left;overflow=fill;fontSize=14;fontFamily=Helvetica;html=1;rounded=0;shadow=0;comic=0;labelBackgroundColor=none;strokeWidth=1;" parent="1" vertex="1">
          <mxGeometry x="1076" y="2976" width="229" height="95" as="geometry" />
        </mxCell>
        <mxCell id="node18" value="&lt;p style=&quot;margin:0px;margin-top:4px;text-align:center;&quot;&gt;&lt;i&gt;&amp;lt;&amp;lt;interface&amp;gt;&amp;gt;&lt;/i&gt;&lt;br/&gt;&lt;b&gt;ChangeListener&lt;/b&gt;&lt;/p&gt;&lt;hr size=&quot;1&quot;/&gt;&lt;p style=&quot;margin:0 0 0 4px;line-height:1.6;&quot;&gt;+ onChange(Object, boolean): void&lt;/p&gt;" style="verticalAlign=top;align=left;overflow=fill;fontSize=14;fontFamily=Helvetica;html=1;rounded=0;shadow=0;comic=0;labelBackgroundColor=none;strokeWidth=1;" parent="1" vertex="1">
          <mxGeometry x="1857" y="3274" width="251" height="79" as="geometry" />
        </mxCell>
        <mxCell id="node5" value="&lt;p style=&quot;margin:0px;margin-top:4px;text-align:center;&quot;&gt;&lt;b&gt;ClientApp&lt;/b&gt;&lt;/p&gt;&lt;hr size=&quot;1&quot;/&gt;&lt;p style=&quot;margin:0 0 0 4px;line-height:1.6;&quot;&gt;+ ClientApp(): &lt;/p&gt;&lt;hr size=&quot;1&quot;/&gt;&lt;p style=&quot;margin:0 0 0 4px;line-height:1.6;&quot;&gt;- toggler: Toggler&lt;/p&gt;&lt;hr size=&quot;1&quot;/&gt;&lt;p style=&quot;margin:0 0 0 4px;line-height:1.6;&quot;&gt;+ main(String[]): void&lt;br/&gt;+ setupFrame(): void&lt;br/&gt;+ redirect(String): void&lt;/p&gt;&lt;hr size=&quot;1&quot;/&gt;&lt;p style=&quot;margin:0 0 0 4px;line-height:1.6;&quot;&gt; toggler: Toggler&lt;/p&gt;" style="verticalAlign=top;align=left;overflow=fill;fontSize=14;fontFamily=Helvetica;html=1;rounded=0;shadow=0;comic=0;labelBackgroundColor=none;strokeWidth=1;" parent="1" vertex="1">
          <mxGeometry x="748" y="2927" width="174" height="186" as="geometry" />
        </mxCell>
        <mxCell id="node14" value="&lt;p style=&quot;margin:0px;margin-top:4px;text-align:center;&quot;&gt;&lt;b&gt;ColorManager&lt;/b&gt;&lt;/p&gt;&lt;hr size=&quot;1&quot;/&gt;&lt;p style=&quot;margin:0 0 0 4px;line-height:1.6;&quot;&gt;+ ColorManager(): &lt;/p&gt;" style="verticalAlign=top;align=left;overflow=fill;fontSize=14;fontFamily=Helvetica;html=1;rounded=0;shadow=0;comic=0;labelBackgroundColor=none;strokeWidth=1;" parent="1" vertex="1">
          <mxGeometry x="1857" y="3141" width="161" height="68" as="geometry" />
        </mxCell>
        <mxCell id="node10" value="&lt;p style=&quot;margin:0px;margin-top:4px;text-align:center;&quot;&gt;&lt;b&gt;CommonArea&lt;/b&gt;&lt;/p&gt;&lt;hr size=&quot;1&quot;/&gt;&lt;p style=&quot;margin:0 0 0 4px;line-height:1.6;&quot;&gt;+ CommonArea(Logger, PauseManager): &lt;/p&gt;&lt;hr size=&quot;1&quot;/&gt;&lt;p style=&quot;margin:0 0 0 4px;line-height:1.6;&quot;&gt;- humansInside: List&amp;lt;Human&amp;gt;&lt;/p&gt;&lt;hr size=&quot;1&quot;/&gt;&lt;p style=&quot;margin:0 0 0 4px;line-height:1.6;&quot;&gt;+ addChangeListener(ChangeListener): void&lt;br/&gt;+ enter(Human): void&lt;br/&gt;+ exit(Human): void&lt;br/&gt;- notifyChange(boolean): void&lt;br/&gt;+ prepare(Human): void&lt;/p&gt;&lt;hr size=&quot;1&quot;/&gt;&lt;p style=&quot;margin:0 0 0 4px;line-height:1.6;&quot;&gt; humansInside: ArrayList&amp;lt;Human&amp;gt;&lt;br/&gt; humansInsideCounter: int&lt;/p&gt;" style="verticalAlign=top;align=left;overflow=fill;fontSize=14;fontFamily=Helvetica;html=1;rounded=0;shadow=0;comic=0;labelBackgroundColor=none;strokeWidth=1;" parent="1" vertex="1">
          <mxGeometry x="748" y="4272" width="364" height="258" as="geometry" />
        </mxCell>
        <mxCell id="node22" value="&lt;p style=&quot;margin:0px;margin-top:4px;text-align:center;&quot;&gt;&lt;b&gt;DiningRoom&lt;/b&gt;&lt;/p&gt;&lt;hr size=&quot;1&quot;/&gt;&lt;p style=&quot;margin:0 0 0 4px;line-height:1.6;&quot;&gt;+ DiningRoom(Logger, PauseManager): &lt;/p&gt;&lt;hr size=&quot;1&quot;/&gt;&lt;p style=&quot;margin:0 0 0 4px;line-height:1.6;&quot;&gt;- humansInside: List&amp;lt;Human&amp;gt;&lt;br/&gt;- isEmpty: boolean&lt;br/&gt;- foodCount: Semaphore&lt;/p&gt;&lt;hr size=&quot;1&quot;/&gt;&lt;p style=&quot;margin:0 0 0 4px;line-height:1.6;&quot;&gt;+ eatFood(Human): void&lt;br/&gt;+ storeFood(Food, Human): void&lt;br/&gt;+ addChangeListener(ChangeListener): void&lt;br/&gt;+ exit(Human): void&lt;br/&gt;+ enter(Human): void&lt;br/&gt;- notifyChange(boolean): void&lt;/p&gt;&lt;hr size=&quot;1&quot;/&gt;&lt;p style=&quot;margin:0 0 0 4px;line-height:1.6;&quot;&gt; humansInside: ArrayList&amp;lt;Human&amp;gt;&lt;br/&gt; foodCount: int&lt;br/&gt; humansInsideCounter: int&lt;br/&gt; isEmpty: boolean&lt;/p&gt;" style="verticalAlign=top;align=left;overflow=fill;fontSize=14;fontFamily=Helvetica;html=1;rounded=0;shadow=0;comic=0;labelBackgroundColor=none;strokeWidth=1;" parent="1" vertex="1">
          <mxGeometry x="1659" y="4152" width="309" height="378" as="geometry" />
        </mxCell>
        <mxCell id="node16" value="&lt;p style=&quot;margin:0px;margin-top:4px;text-align:center;&quot;&gt;&lt;b&gt;FontManager&lt;/b&gt;&lt;/p&gt;&lt;hr size=&quot;1&quot;/&gt;&lt;p style=&quot;margin:0 0 0 4px;line-height:1.6;&quot;&gt;+ FontManager(): &lt;/p&gt;&lt;hr size=&quot;1&quot;/&gt;&lt;p style=&quot;margin:0 0 0 4px;line-height:1.6;&quot;&gt;- loadFont(String, float): Font&lt;/p&gt;" style="verticalAlign=top;align=left;overflow=fill;fontSize=14;fontFamily=Helvetica;html=1;rounded=0;shadow=0;comic=0;labelBackgroundColor=none;strokeWidth=1;" parent="1" vertex="1">
          <mxGeometry x="1857" y="2984" width="219" height="95" as="geometry" />
        </mxCell>
        <mxCell id="node4" value="&lt;p style=&quot;margin:0px;margin-top:4px;text-align:center;&quot;&gt;&lt;b&gt;Food&lt;/b&gt;&lt;/p&gt;&lt;hr size=&quot;1&quot;/&gt;&lt;p style=&quot;margin:0 0 0 4px;line-height:1.6;&quot;&gt;+ Food(int): &lt;/p&gt;" style="verticalAlign=top;align=left;overflow=fill;fontSize=14;fontFamily=Helvetica;html=1;rounded=0;shadow=0;comic=0;labelBackgroundColor=none;strokeWidth=1;" parent="1" vertex="1">
          <mxGeometry x="2412" y="4467" width="110" height="68" as="geometry" />
        </mxCell>
        <mxCell id="node9" value="&lt;p style=&quot;margin:0px;margin-top:4px;text-align:center;&quot;&gt;&lt;b&gt;FoodGenerator&lt;/b&gt;&lt;/p&gt;&lt;hr size=&quot;1&quot;/&gt;&lt;p style=&quot;margin:0 0 0 4px;line-height:1.6;&quot;&gt;+ FoodGenerator(): &lt;/p&gt;&lt;hr size=&quot;1&quot;/&gt;&lt;p style=&quot;margin:0 0 0 4px;line-height:1.6;&quot;&gt;+ FoodGenerator(): void&lt;br/&gt;+ gatherFood(): Food&lt;/p&gt;" style="verticalAlign=top;align=left;overflow=fill;fontSize=14;fontFamily=Helvetica;html=1;rounded=0;shadow=0;comic=0;labelBackgroundColor=none;strokeWidth=1;" parent="1" vertex="1">
          <mxGeometry x="2166" y="4418" width="184" height="121" as="geometry" />
        </mxCell>
        <mxCell id="node3" value="&lt;p style=&quot;margin:0px;margin-top:4px;text-align:center;&quot;&gt;&lt;b&gt;Human&lt;/b&gt;&lt;/p&gt;&lt;hr size=&quot;1&quot;/&gt;&lt;p style=&quot;margin:0 0 0 4px;line-height:1.6;&quot;&gt;+ Human(int, Refuge, Tunnels): &lt;/p&gt;&lt;hr size=&quot;1&quot;/&gt;&lt;p style=&quot;margin:0 0 0 4px;line-height:1.6;&quot;&gt;- waitGroup: boolean&lt;br/&gt;- humanId: String&lt;br/&gt;- selectedTunnel: int&lt;br/&gt;- killed: boolean&lt;br/&gt;- beingAttacked: boolean&lt;br/&gt;- marked: boolean&lt;/p&gt;&lt;hr size=&quot;1&quot;/&gt;&lt;p style=&quot;margin:0 0 0 4px;line-height:1.6;&quot;&gt;+ depositFood(): Food&lt;br/&gt;+ loseAllFood(): void&lt;br/&gt;+ run(): void&lt;br/&gt;+ collectFood(Food): void&lt;/p&gt;&lt;hr size=&quot;1&quot;/&gt;&lt;p style=&quot;margin:0 0 0 4px;line-height:1.6;&quot;&gt; killed: boolean&lt;br/&gt; waiting: boolean&lt;br/&gt; marked: boolean&lt;br/&gt; selectedTunnel: int&lt;br/&gt; waitGroup: boolean&lt;br/&gt; humanId: String&lt;br/&gt; humanColor: Color&lt;br/&gt; beingAttacked: boolean&lt;/p&gt;" style="verticalAlign=top;align=left;overflow=fill;fontSize=14;fontFamily=Helvetica;html=1;rounded=0;shadow=0;comic=0;labelBackgroundColor=none;strokeWidth=1;" parent="1" vertex="1">
          <mxGeometry x="748" y="3552" width="233" height="498" as="geometry" />
        </mxCell>
        <mxCell id="node25" value="&lt;p style=&quot;margin:0px;margin-top:4px;text-align:center;&quot;&gt;&lt;b&gt;LogPage&lt;/b&gt;&lt;/p&gt;&lt;hr size=&quot;1&quot;/&gt;&lt;p style=&quot;margin:0 0 0 4px;line-height:1.6;&quot;&gt;+ LogPage(): &lt;/p&gt;&lt;hr size=&quot;1&quot;/&gt;&lt;p style=&quot;margin:0 0 0 4px;line-height:1.6;&quot;&gt;- mapButtonActionPerformed(ActionEvent): void&lt;br/&gt;- pauseResumeButtonActionPerformed(ActionEvent): void&lt;br/&gt;- loadLogs(): void&lt;br/&gt;- initComponents(): void&lt;/p&gt;" style="verticalAlign=top;align=left;overflow=fill;fontSize=14;fontFamily=Helvetica;html=1;rounded=0;shadow=0;comic=0;labelBackgroundColor=none;strokeWidth=1;" parent="1" vertex="1">
          <mxGeometry x="1857" y="2553" width="400" height="160" as="geometry" />
        </mxCell>
        <mxCell id="node13" value="&lt;p style=&quot;margin:0px;margin-top:4px;text-align:center;&quot;&gt;&lt;b&gt;Logger&lt;/b&gt;&lt;/p&gt;&lt;hr size=&quot;1&quot;/&gt;&lt;p style=&quot;margin:0 0 0 4px;line-height:1.6;&quot;&gt;+ Logger(): &lt;/p&gt;&lt;hr size=&quot;1&quot;/&gt;&lt;p style=&quot;margin:0 0 0 4px;line-height:1.6;&quot;&gt;- lastLogEntry: String&lt;/p&gt;&lt;hr size=&quot;1&quot;/&gt;&lt;p style=&quot;margin:0 0 0 4px;line-height:1.6;&quot;&gt;+ addChangeListener(ChangeListener): void&lt;br/&gt;+ log(String): void&lt;br/&gt;- notifyChange(): void&lt;/p&gt;&lt;hr size=&quot;1&quot;/&gt;&lt;p style=&quot;margin:0 0 0 4px;line-height:1.6;&quot;&gt; lastLogEntry: String&lt;br/&gt; fileName: String&lt;/p&gt;" style="verticalAlign=top;align=left;overflow=fill;fontSize=14;fontFamily=Helvetica;html=1;rounded=0;shadow=0;comic=0;labelBackgroundColor=none;strokeWidth=1;" parent="1" vertex="1">
          <mxGeometry x="2338" y="2503" width="309" height="210" as="geometry" />
        </mxCell>
        <mxCell id="node20" value="&lt;p style=&quot;margin:0px;margin-top:4px;text-align:center;&quot;&gt;&lt;b&gt;MainClientPage&lt;/b&gt;&lt;/p&gt;&lt;hr size=&quot;1&quot;/&gt;&lt;p style=&quot;margin:0 0 0 4px;line-height:1.6;&quot;&gt;+ MainClientPage(): &lt;/p&gt;&lt;hr size=&quot;1&quot;/&gt;&lt;p style=&quot;margin:0 0 0 4px;line-height:1.6;&quot;&gt;+ updateData(): void&lt;br/&gt;- setupLabels(): void&lt;br/&gt;- initComponents(): void&lt;br/&gt;- pauseResumeButtonActionPerformed(ActionEvent): void&lt;/p&gt;" style="verticalAlign=top;align=left;overflow=fill;fontSize=14;fontFamily=Helvetica;html=1;rounded=0;shadow=0;comic=0;labelBackgroundColor=none;strokeWidth=1;" parent="1" vertex="1">
          <mxGeometry x="748" y="3172" width="556" height="160" as="geometry" />
        </mxCell>
        <mxCell id="node8" value="&lt;p style=&quot;margin:0px;margin-top:4px;text-align:center;&quot;&gt;&lt;b&gt;MapPage&lt;/b&gt;&lt;/p&gt;&lt;hr size=&quot;1&quot;/&gt;&lt;p style=&quot;margin:0 0 0 4px;line-height:1.6;&quot;&gt;+ MapPage(): &lt;/p&gt;&lt;hr size=&quot;1&quot;/&gt;&lt;p style=&quot;margin:0 0 0 4px;line-height:1.6;&quot;&gt;+ setCounter(String, String): void&lt;br/&gt;+ pauseResume(): void&lt;br/&gt;+ enableAutoResize(): void&lt;br/&gt;- initComponents(): void&lt;br/&gt;+ updatePanel(String, List&amp;lt;String&amp;gt;): void&lt;br/&gt;- pauseResumeButtonActionPerformed(ActionEvent): void&lt;br/&gt;+ popInfo(): void&lt;br/&gt;- commonHumanIcon3ActionPerformed(ActionEvent): void&lt;br/&gt;- updatePanelPreferredHeight(JPanel): void&lt;br/&gt;+ addLabelToPanel(String, String): void&lt;br/&gt;- refugeIconActionPerformed(ActionEvent): void&lt;br/&gt;- jButton1ActionPerformed(ActionEvent): void&lt;br/&gt;+ setLabelColorInPanel(String, String, Color): void&lt;br/&gt;- ZombieIcon6ActionPerformed(ActionEvent): void&lt;br/&gt;- setupListeners(): void&lt;br/&gt;- commonHumanIcon6ActionPerformed(ActionEvent): void&lt;br/&gt;- logsButtonActionPerformed(ActionEvent): void&lt;br/&gt;- setupPanels(): void&lt;br/&gt;- setupCounters(): void&lt;br/&gt;- getFlowLayoutRowCount(JPanel): int&lt;br/&gt;- commonHumanIcon1ActionPerformed(ActionEvent): void&lt;br/&gt;- ZombieIcon7ActionPerformed(ActionEvent): void&lt;br/&gt;- commonHumanIconActionPerformed(ActionEvent): void&lt;br/&gt;- foodIconActionPerformed(ActionEvent): void&lt;br/&gt;- commonHumanIcon2ActionPerformed(ActionEvent): void&lt;br/&gt;- ZombieIcon1ActionPerformed(ActionEvent): void&lt;br/&gt;- commonHumanIcon5ActionPerformed(ActionEvent): void&lt;br/&gt;+ removeLabelFromPanel(String, String): void&lt;br/&gt;- ZombieIcon5ActionPerformed(ActionEvent): void&lt;br/&gt;- commonHumanIcon4ActionPerformed(ActionEvent): void&lt;/p&gt;" style="verticalAlign=top;align=left;overflow=fill;fontSize=14;fontFamily=Helvetica;html=1;rounded=0;shadow=0;comic=0;labelBackgroundColor=none;strokeWidth=1;" parent="1" vertex="1">
          <mxGeometry x="1410" y="2553" width="401" height="784" as="geometry" />
        </mxCell>
        <mxCell id="node24" value="&lt;p style=&quot;margin:0px;margin-top:4px;text-align:center;&quot;&gt;&lt;b&gt;PauseManager&lt;/b&gt;&lt;/p&gt;&lt;hr size=&quot;1&quot;/&gt;&lt;p style=&quot;margin:0 0 0 4px;line-height:1.6;&quot;&gt;+ PauseManager(): &lt;/p&gt;&lt;hr size=&quot;1&quot;/&gt;&lt;p style=&quot;margin:0 0 0 4px;line-height:1.6;&quot;&gt;- pauseStateListener: List&amp;lt;Runnable&amp;gt;&lt;br/&gt;- paused: boolean&lt;/p&gt;&lt;hr size=&quot;1&quot;/&gt;&lt;p style=&quot;margin:0 0 0 4px;line-height:1.6;&quot;&gt;+ check(): void&lt;br/&gt;+ underAttackCheck(): void&lt;br/&gt;+ togglePause(): void&lt;/p&gt;&lt;hr size=&quot;1&quot;/&gt;&lt;p style=&quot;margin:0 0 0 4px;line-height:1.6;&quot;&gt; paused: boolean&lt;br/&gt; pauseStateListener: Runnable&lt;/p&gt;" style="verticalAlign=top;align=left;overflow=fill;fontSize=14;fontFamily=Helvetica;html=1;rounded=0;shadow=0;comic=0;labelBackgroundColor=none;strokeWidth=1;" parent="1" vertex="1">
          <mxGeometry x="1301" y="3816" width="272" height="234" as="geometry" />
        </mxCell>
        <mxCell id="node7" value="&lt;p style=&quot;margin:0px;margin-top:4px;text-align:center;&quot;&gt;&lt;b&gt;Refuge&lt;/b&gt;&lt;/p&gt;&lt;hr size=&quot;1&quot;/&gt;&lt;p style=&quot;margin:0 0 0 4px;line-height:1.6;&quot;&gt;+ Refuge(Logger, PauseManager): &lt;/p&gt;&lt;hr size=&quot;1&quot;/&gt;&lt;p style=&quot;margin:0 0 0 4px;line-height:1.6;&quot;&gt;- count: AtomicInteger&lt;/p&gt;&lt;hr size=&quot;1&quot;/&gt;&lt;p style=&quot;margin:0 0 0 4px;line-height:1.6;&quot;&gt;- notifyChange(boolean): void&lt;br/&gt;+ addChangeListener(ChangeListener): void&lt;br/&gt;+ eatInDiningRoom(Human): void&lt;br/&gt;+ leave(Human): void&lt;br/&gt;+ accessCommonArea(Human): void&lt;br/&gt;+ fullRecoverInRestArea(Human): void&lt;br/&gt;+ access(Human): void&lt;br/&gt;+ restInRestArea(Human): void&lt;br/&gt;+ depositFoodInDiningRoom(Food, Human): void&lt;/p&gt;&lt;hr size=&quot;1&quot;/&gt;&lt;p style=&quot;margin:0 0 0 4px;line-height:1.6;&quot;&gt; RA: RestArea&lt;br/&gt; count: AtomicInteger&lt;br/&gt; DR: DiningRoom&lt;br/&gt; CA: CommonArea&lt;/p&gt;" style="verticalAlign=top;align=left;overflow=fill;fontSize=14;fontFamily=Helvetica;html=1;rounded=0;shadow=0;comic=0;labelBackgroundColor=none;strokeWidth=1;" parent="1" vertex="1">
          <mxGeometry x="1659" y="3648" width="309" height="402" as="geometry" />
        </mxCell>
        <mxCell id="node21" value="&lt;p style=&quot;margin:0px;margin-top:4px;text-align:center;&quot;&gt;&lt;b&gt;RestArea&lt;/b&gt;&lt;/p&gt;&lt;hr size=&quot;1&quot;/&gt;&lt;p style=&quot;margin:0 0 0 4px;line-height:1.6;&quot;&gt;+ RestArea(Logger, PauseManager): &lt;/p&gt;&lt;hr size=&quot;1&quot;/&gt;&lt;p style=&quot;margin:0 0 0 4px;line-height:1.6;&quot;&gt;- humansInside: List&amp;lt;Human&amp;gt;&lt;/p&gt;&lt;hr size=&quot;1&quot;/&gt;&lt;p style=&quot;margin:0 0 0 4px;line-height:1.6;&quot;&gt;+ enter(Human): void&lt;br/&gt;+ exit(Human): void&lt;br/&gt;+ fullRecover(Human): void&lt;br/&gt;+ rest(Human): void&lt;br/&gt;- notifyChange(boolean): void&lt;br/&gt;+ addChangeListener(ChangeListener): void&lt;/p&gt;&lt;hr size=&quot;1&quot;/&gt;&lt;p style=&quot;margin:0 0 0 4px;line-height:1.6;&quot;&gt; humansInside: ArrayList&amp;lt;Human&amp;gt;&lt;br/&gt; humansInsideCounter: int&lt;/p&gt;" style="verticalAlign=top;align=left;overflow=fill;fontSize=14;fontFamily=Helvetica;html=1;rounded=0;shadow=0;comic=0;labelBackgroundColor=none;strokeWidth=1;" parent="1" vertex="1">
          <mxGeometry x="1198" y="4248" width="375" height="282" as="geometry" />
        </mxCell>
        <mxCell id="node6" value="&lt;p style=&quot;margin:0px;margin-top:4px;text-align:center;&quot;&gt;&lt;b&gt;RiskZone&lt;/b&gt;&lt;/p&gt;&lt;hr size=&quot;1&quot;/&gt;&lt;p style=&quot;margin:0 0 0 4px;line-height:1.6;&quot;&gt;+ RiskZone(Logger, PauseManager): &lt;/p&gt;&lt;hr size=&quot;1&quot;/&gt;&lt;p style=&quot;margin:0 0 0 4px;line-height:1.6;&quot;&gt;- unsafeAreas: UnsafeArea[]&lt;/p&gt;&lt;hr size=&quot;1&quot;/&gt;&lt;p style=&quot;margin:0 0 0 4px;line-height:1.6;&quot;&gt;+ obtainTopKillers(): String&lt;br/&gt;- reorderTopKillers(): void&lt;br/&gt;+ obtainUnsafeArea(int): UnsafeArea&lt;br/&gt;+ showTopKillers(): void&lt;br/&gt;+ reportKill(Zombie): void&lt;/p&gt;&lt;hr size=&quot;1&quot;/&gt;&lt;p style=&quot;margin:0 0 0 4px;line-height:1.6;&quot;&gt; unsafeAreas: UnsafeArea[]&lt;/p&gt;" style="verticalAlign=top;align=left;overflow=fill;fontSize=14;fontFamily=Helvetica;html=1;rounded=0;shadow=0;comic=0;labelBackgroundColor=none;strokeWidth=1;" parent="1" vertex="1">
          <mxGeometry x="2382" y="2911" width="265" height="234" as="geometry" />
        </mxCell>
        <mxCell id="node19" value="&lt;p style=&quot;margin:0px;margin-top:4px;text-align:center;&quot;&gt;&lt;b&gt;ServerApp&lt;/b&gt;&lt;/p&gt;&lt;hr size=&quot;1&quot;/&gt;&lt;p style=&quot;margin:0 0 0 4px;line-height:1.6;&quot;&gt;+ ServerApp(): &lt;/p&gt;&lt;hr size=&quot;1&quot;/&gt;&lt;p style=&quot;margin:0 0 0 4px;line-height:1.6;&quot;&gt;+ setupFrame(): void&lt;br/&gt;+ redirect(String): void&lt;br/&gt;+ main(String[]): void&lt;/p&gt;&lt;hr size=&quot;1&quot;/&gt;&lt;p style=&quot;margin:0 0 0 4px;line-height:1.6;&quot;&gt; r: Refuge&lt;br/&gt; t: Tunnels&lt;br/&gt; RA: RestArea&lt;br/&gt; RZ: RiskZone&lt;br/&gt; l: Logger&lt;br/&gt; PM: PauseManager&lt;br/&gt; DR: DiningRoom&lt;br/&gt; CA: CommonArea&lt;/p&gt;" style="verticalAlign=top;align=left;overflow=fill;fontSize=14;fontFamily=Helvetica;html=1;rounded=0;shadow=0;comic=0;labelBackgroundColor=none;strokeWidth=1;" parent="1" vertex="1">
          <mxGeometry x="1131" y="2553" width="174" height="329" as="geometry" />
        </mxCell>
        <mxCell id="node1" value="&lt;p style=&quot;margin:0px;margin-top:4px;text-align:center;&quot;&gt;&lt;b&gt;ServerData&lt;/b&gt;&lt;/p&gt;&lt;hr size=&quot;1&quot;/&gt;&lt;p style=&quot;margin:0 0 0 4px;line-height:1.6;&quot;&gt;+ ServerData(PauseManager, Tunnels, Refuge, RiskZone): &lt;/p&gt;&lt;hr size=&quot;1&quot;/&gt;&lt;p style=&quot;margin:0 0 0 4px;line-height:1.6;&quot;&gt;+ run(): void&lt;/p&gt;" style="verticalAlign=top;align=left;overflow=fill;fontSize=14;fontFamily=Helvetica;html=1;rounded=0;shadow=0;comic=0;labelBackgroundColor=none;strokeWidth=1;" parent="1" vertex="1">
          <mxGeometry x="748" y="3391" width="400" height="95" as="geometry" />
        </mxCell>
        <mxCell id="node2" value="&lt;p style=&quot;margin:0px;margin-top:4px;text-align:center;&quot;&gt;&lt;b&gt;Toggler&lt;/b&gt;&lt;/p&gt;&lt;hr size=&quot;1&quot;/&gt;&lt;p style=&quot;margin:0 0 0 4px;line-height:1.6;&quot;&gt;+ Toggler(): &lt;/p&gt;&lt;hr size=&quot;1&quot;/&gt;&lt;p style=&quot;margin:0 0 0 4px;line-height:1.6;&quot;&gt;- paused: boolean&lt;br/&gt;- pauseStateListener: Runnable&lt;/p&gt;&lt;hr size=&quot;1&quot;/&gt;&lt;p style=&quot;margin:0 0 0 4px;line-height:1.6;&quot;&gt;+ togglePause(): void&lt;br/&gt;+ resume(): void&lt;br/&gt;+ pause(): void&lt;/p&gt;&lt;hr size=&quot;1&quot;/&gt;&lt;p style=&quot;margin:0 0 0 4px;line-height:1.6;&quot;&gt; paused: boolean&lt;br/&gt; pauseStateListener: Runnable&lt;/p&gt;" style="verticalAlign=top;align=left;overflow=fill;fontSize=14;fontFamily=Helvetica;html=1;rounded=0;shadow=0;comic=0;labelBackgroundColor=none;strokeWidth=1;" parent="1" vertex="1">
          <mxGeometry x="748" y="2648" width="232" height="234" as="geometry" />
        </mxCell>
        <mxCell id="node12" value="&lt;p style=&quot;margin:0px;margin-top:4px;text-align:center;&quot;&gt;&lt;b&gt;Tunnel&lt;/b&gt;&lt;/p&gt;&lt;hr size=&quot;1&quot;/&gt;&lt;p style=&quot;margin:0 0 0 4px;line-height:1.6;&quot;&gt;+ Tunnel(UnsafeArea, Logger, int, PauseManager): &lt;/p&gt;&lt;hr size=&quot;1&quot;/&gt;&lt;p style=&quot;margin:0 0 0 4px;line-height:1.6;&quot;&gt;- id: int&lt;br/&gt;- unsafeArea: UnsafeArea&lt;/p&gt;&lt;hr size=&quot;1&quot;/&gt;&lt;p style=&quot;margin:0 0 0 4px;line-height:1.6;&quot;&gt;- hasReturnersWaiting(): boolean&lt;br/&gt;- notifyChange(boolean): void&lt;br/&gt;+ addChangeListener(ChangeListener): void&lt;br/&gt;+ requestExit(Human): void&lt;br/&gt;+ requestReturn(Human): void&lt;/p&gt;&lt;hr size=&quot;1&quot;/&gt;&lt;p style=&quot;margin:0 0 0 4px;line-height:1.6;&quot;&gt; id: int&lt;br/&gt; exiting: Queue&amp;lt;Human&amp;gt;&lt;br/&gt; inTunnel: String&lt;br/&gt; unsafeArea: UnsafeArea&lt;br/&gt; entering: Queue&amp;lt;Human&amp;gt;&lt;br/&gt; totalInTunnel: int&lt;/p&gt;" style="verticalAlign=top;align=left;overflow=fill;fontSize=14;fontFamily=Helvetica;html=1;rounded=0;shadow=0;comic=0;labelBackgroundColor=none;strokeWidth=1;" parent="1" vertex="1">
          <mxGeometry x="2173" y="3855" width="356" height="378" as="geometry" />
        </mxCell>
        <mxCell id="node11" value="&lt;p style=&quot;margin:0px;margin-top:4px;text-align:center;&quot;&gt;&lt;b&gt;Tunnels&lt;/b&gt;&lt;/p&gt;&lt;hr size=&quot;1&quot;/&gt;&lt;p style=&quot;margin:0 0 0 4px;line-height:1.6;&quot;&gt;+ Tunnels(RiskZone, Logger, PauseManager): &lt;/p&gt;&lt;hr size=&quot;1&quot;/&gt;&lt;p style=&quot;margin:0 0 0 4px;line-height:1.6;&quot;&gt;+ obtainTunnel(int): Tunnel&lt;/p&gt;" style="verticalAlign=top;align=left;overflow=fill;fontSize=14;fontFamily=Helvetica;html=1;rounded=0;shadow=0;comic=0;labelBackgroundColor=none;strokeWidth=1;" parent="1" vertex="1">
          <mxGeometry x="2166" y="4281" width="356" height="95" as="geometry" />
        </mxCell>
        <mxCell id="node23" value="&lt;p style=&quot;margin:0px;margin-top:4px;text-align:center;&quot;&gt;&lt;b&gt;UiDispatcher&lt;/b&gt;&lt;/p&gt;&lt;hr size=&quot;1&quot;/&gt;&lt;p style=&quot;margin:0 0 0 4px;line-height:1.6;&quot;&gt;+ UiDispatcher(): &lt;/p&gt;&lt;hr size=&quot;1&quot;/&gt;&lt;p style=&quot;margin:0 0 0 4px;line-height:1.6;&quot;&gt;- executeQueuedTasks(): void&lt;br/&gt;+ invoke(Runnable): void&lt;br/&gt;- scheduleIfNeeded(): void&lt;/p&gt;" style="verticalAlign=top;align=left;overflow=fill;fontSize=14;fontFamily=Helvetica;html=1;rounded=0;shadow=0;comic=0;labelBackgroundColor=none;strokeWidth=1;" parent="1" vertex="1">
          <mxGeometry x="1857" y="2780" width="225" height="147" as="geometry" />
        </mxCell>
        <mxCell id="node17" value="&lt;p style=&quot;margin:0px;margin-top:4px;text-align:center;&quot;&gt;&lt;b&gt;UnsafeArea&lt;/b&gt;&lt;/p&gt;&lt;hr size=&quot;1&quot;/&gt;&lt;p style=&quot;margin:0 0 0 4px;line-height:1.6;&quot;&gt;+ UnsafeArea(int, Logger, FoodGenerator, RiskZone, PauseManager): &lt;/p&gt;&lt;hr size=&quot;1&quot;/&gt;&lt;p style=&quot;margin:0 0 0 4px;line-height:1.6;&quot;&gt;- humansInside: List&amp;lt;Human&amp;gt;&lt;br/&gt;- riskZone: RiskZone&lt;br/&gt;- zombiesInside: List&amp;lt;Zombie&amp;gt;&lt;br/&gt;- humansInsideCount: AtomicInteger&lt;br/&gt;- area: int&lt;/p&gt;&lt;hr size=&quot;1&quot;/&gt;&lt;p style=&quot;margin:0 0 0 4px;line-height:1.6;&quot;&gt;+ exit(Human): void&lt;br/&gt;+ wander(Human): void&lt;br/&gt;+ enter(Human): void&lt;br/&gt;+ addChangeListener(ChangeListener): void&lt;br/&gt;+ exit(Zombie): void&lt;br/&gt;+ wander(Zombie): void&lt;br/&gt;- notifyChange(boolean): void&lt;br/&gt;+ enter(Zombie): void&lt;/p&gt;&lt;hr size=&quot;1&quot;/&gt;&lt;p style=&quot;margin:0 0 0 4px;line-height:1.6;&quot;&gt; zombiesInsideCount: int&lt;br/&gt; humansInside: ArrayList&amp;lt;Human&amp;gt;&lt;br/&gt; riskZone: RiskZone&lt;br/&gt; humansInsideCount: AtomicInteger&lt;br/&gt; area: int&lt;br/&gt; zombiesInside: ArrayList&amp;lt;Zombie&amp;gt;&lt;/p&gt;" style="verticalAlign=top;align=left;overflow=fill;fontSize=14;fontFamily=Helvetica;html=1;rounded=0;shadow=0;comic=0;labelBackgroundColor=none;strokeWidth=1;" parent="1" vertex="1">
          <mxGeometry x="2173" y="3232" width="474" height="522" as="geometry" />
        </mxCell>
        <mxCell id="node0" value="&lt;p style=&quot;margin:0px;margin-top:4px;text-align:center;&quot;&gt;&lt;b&gt;Zombie&lt;/b&gt;&lt;/p&gt;&lt;hr size=&quot;1&quot;/&gt;&lt;p style=&quot;margin:0 0 0 4px;line-height:1.6;&quot;&gt;+ Zombie(RiskZone): &lt;br/&gt;+ Zombie(String, UnsafeArea): &lt;/p&gt;&lt;hr size=&quot;1&quot;/&gt;&lt;p style=&quot;margin:0 0 0 4px;line-height:1.6;&quot;&gt;- killCount: int&lt;br/&gt;- zombieId: String&lt;br/&gt;- attacking: boolean&lt;/p&gt;&lt;hr size=&quot;1&quot;/&gt;&lt;p style=&quot;margin:0 0 0 4px;line-height:1.6;&quot;&gt;+ increaseKillCount(): void&lt;br/&gt;+ run(): void&lt;/p&gt;&lt;hr size=&quot;1&quot;/&gt;&lt;p style=&quot;margin:0 0 0 4px;line-height:1.6;&quot;&gt; attacking: boolean&lt;br/&gt; zombieId: String&lt;br/&gt; zombieColor: Color&lt;br/&gt; killCount: int&lt;/p&gt;" style="verticalAlign=top;align=left;overflow=fill;fontSize=14;fontFamily=Helvetica;html=1;rounded=0;shadow=0;comic=0;labelBackgroundColor=none;strokeWidth=1;" parent="1" vertex="1">
          <mxGeometry x="1045" y="3744" width="227" height="306" as="geometry" />
        </mxCell>
        <mxCell id="edge58" value="" style="html=1;rounded=1;edgeStyle=orthogonalEdgeStyle;dashed=0;startArrow=diamondThinstartSize=12;endArrow=openThin;endSize=12;strokeColor=#595959;exitX=0.500;exitY=1.000;exitDx=0;exitDy=0;entryX=0.156;entryY=0.000;entryDx=0;entryDy=0;" parent="1" source="node5" target="node20" edge="1">
          <mxGeometry width="50" height="50" relative="1" as="geometry">
            <Array as="points" />
          </mxGeometry>
        </mxCell>
        <mxCell id="edge8" value="" style="html=1;rounded=1;edgeStyle=orthogonalEdgeStyle;dashed=0;startArrow=diamondThinstartSize=12;endArrow=openThin;endSize=12;strokeColor=#595959;exitX=0.667;exitY=0.000;exitDx=0;exitDy=0;entryX=0.500;entryY=1.000;entryDx=0;entryDy=0;" parent="1" source="node5" target="node2" edge="1">
          <mxGeometry width="50" height="50" relative="1" as="geometry">
            <Array as="points" />
          </mxGeometry>
        </mxCell>
        <mxCell id="edge15" value="" style="html=1;rounded=1;edgeStyle=orthogonalEdgeStyle;dashed=1;startArrow=none;endArrow=openThin;endSize=12;strokeColor=#595959;exitX=0.000;exitY=0.212;exitDx=0;exitDy=0;entryX=0.415;entryY=1.001;entryDx=0;entryDy=0;" parent="1" source="node10" target="node18" edge="1">
          <mxGeometry width="50" height="50" relative="1" as="geometry">
            <Array as="points">
              <mxPoint x="701" y="4327" />
              <mxPoint x="701" y="3512" />
              <mxPoint x="1961" y="3512" />
            </Array>
          </mxGeometry>
        </mxCell>
        <mxCell id="edge25" value="" style="html=1;rounded=1;edgeStyle=orthogonalEdgeStyle;dashed=1;startArrow=none;endArrow=openThin;endSize=12;strokeColor=#595959;exitX=0.148;exitY=0.000;exitDx=0;exitDy=0;entryX=0.231;entryY=1.000;entryDx=0;entryDy=0;" parent="1" source="node10" target="node3" edge="1">
          <mxGeometry width="50" height="50" relative="1" as="geometry">
            <Array as="points">
              <mxPoint x="802" y="4162" />
            </Array>
          </mxGeometry>
        </mxCell>
        <mxCell id="edge56" value="" style="html=1;rounded=1;edgeStyle=orthogonalEdgeStyle;dashed=0;startArrow=diamondThinstartSize=12;endArrow=openThin;endSize=12;strokeColor=#595959;exitX=0.500;exitY=1.000;exitDx=0;exitDy=0;entryX=1.000;entryY=0.916;entryDx=0;entryDy=0;" parent="1" source="node10" target="node13" edge="1">
          <mxGeometry width="50" height="50" relative="1" as="geometry">
            <Array as="points">
              <mxPoint x="930" y="4578" />
              <mxPoint x="2678" y="4578" />
              <mxPoint x="2678" y="2695" />
            </Array>
          </mxGeometry>
        </mxCell>
        <mxCell id="edge47" value="" style="html=1;rounded=1;edgeStyle=orthogonalEdgeStyle;dashed=0;startArrow=diamondThinstartSize=12;endArrow=openThin;endSize=12;strokeColor=#595959;exitX=0.906;exitY=0.000;exitDx=0;exitDy=0;entryX=0.382;entryY=1.000;entryDx=0;entryDy=0;" parent="1" source="node10" target="node24" edge="1">
          <mxGeometry width="50" height="50" relative="1" as="geometry">
            <Array as="points">
              <mxPoint x="1078" y="4190" />
              <mxPoint x="1405" y="4190" />
            </Array>
          </mxGeometry>
        </mxCell>
        <mxCell id="edge2" value="" style="html=1;rounded=1;edgeStyle=orthogonalEdgeStyle;dashed=1;startArrow=none;endArrow=openThin;endSize=12;strokeColor=#595959;exitX=1.000;exitY=0.194;exitDx=0;exitDy=0;entryX=0.296;entryY=1.000;entryDx=0;entryDy=0;" parent="1" source="node22" target="node18" edge="1">
          <mxGeometry width="50" height="50" relative="1" as="geometry">
            <Array as="points">
              <mxPoint x="2031" y="4225" />
              <mxPoint x="2031" y="3399" />
              <mxPoint x="1931" y="3399" />
            </Array>
          </mxGeometry>
        </mxCell>
        <mxCell id="edge55" value="" style="html=1;rounded=1;edgeStyle=orthogonalEdgeStyle;dashed=1;startArrow=none;endArrow=openThin;endSize=12;strokeColor=#595959;exitX=1.000;exitY=0.609;exitDx=0;exitDy=0;entryX=0.555;entryY=0.001;entryDx=0;entryDy=0;" parent="1" source="node22" target="node4" edge="1">
          <mxGeometry width="50" height="50" relative="1" as="geometry">
            <Array as="points">
              <mxPoint x="2473" y="4382" />
            </Array>
          </mxGeometry>
        </mxCell>
        <mxCell id="edge62" value="" style="html=1;rounded=1;edgeStyle=orthogonalEdgeStyle;dashed=1;startArrow=none;endArrow=openThin;endSize=12;strokeColor=#595959;exitX=0.000;exitY=0.205;exitDx=0;exitDy=0;entryX=0.845;entryY=1.000;entryDx=0;entryDy=0;" parent="1" source="node22" target="node3" edge="1">
          <mxGeometry width="50" height="50" relative="1" as="geometry">
            <Array as="points">
              <mxPoint x="945" y="4230" />
            </Array>
          </mxGeometry>
        </mxCell>
        <mxCell id="edge65" value="" style="html=1;rounded=1;edgeStyle=orthogonalEdgeStyle;dashed=0;startArrow=diamondThinstartSize=12;endArrow=openThin;endSize=12;strokeColor=#595959;exitX=0.924;exitY=1.000;exitDx=0;exitDy=0;entryX=1.000;entryY=0.719;entryDx=0;entryDy=0;" parent="1" source="node22" target="node13" edge="1">
          <mxGeometry width="50" height="50" relative="1" as="geometry">
            <Array as="points">
              <mxPoint x="1945" y="4558" />
              <mxPoint x="2691" y="4558" />
              <mxPoint x="2691" y="2654" />
            </Array>
          </mxGeometry>
        </mxCell>
        <mxCell id="edge46" value="" style="html=1;rounded=1;edgeStyle=orthogonalEdgeStyle;dashed=0;startArrow=diamondThinstartSize=12;endArrow=openThin;endSize=12;strokeColor=#595959;exitX=0.000;exitY=0.060;exitDx=0;exitDy=0;entryX=0.888;entryY=1.002;entryDx=0;entryDy=0;" parent="1" source="node22" target="node24" edge="1">
          <mxGeometry width="50" height="50" relative="1" as="geometry">
            <Array as="points">
              <mxPoint x="1543" y="4175" />
            </Array>
          </mxGeometry>
        </mxCell>
        <mxCell id="edge74" value="" style="html=1;rounded=1;edgeStyle=orthogonalEdgeStyle;dashed=1;startArrow=none;endArrow=openThin;endSize=12;strokeColor=#595959;exitX=1.000;exitY=0.719;exitDx=0;exitDy=0;entryX=0.000;entryY=0.500;entryDx=0;entryDy=0;" parent="1" source="node9" target="node4" edge="1">
          <mxGeometry width="50" height="50" relative="1" as="geometry">
            <Array as="points" />
          </mxGeometry>
        </mxCell>
        <mxCell id="edge20" value="" style="html=1;rounded=1;edgeStyle=orthogonalEdgeStyle;dashed=1;startArrow=none;endArrow=openThin;endSize=12;strokeColor=#595959;exitX=0.455;exitY=1.000;exitDx=0;exitDy=0;entryX=0.500;entryY=1.001;entryDx=0;entryDy=0;" parent="1" source="node3" target="node4" edge="1">
          <mxGeometry width="50" height="50" relative="1" as="geometry">
            <Array as="points">
              <mxPoint x="854" y="4241" />
              <mxPoint x="1184" y="4241" />
              <mxPoint x="1184" y="4603" />
              <mxPoint x="2467" y="4603" />
            </Array>
          </mxGeometry>
        </mxCell>
        <mxCell id="edge19" value="" style="html=1;rounded=1;edgeStyle=orthogonalEdgeStyle;dashed=0;startArrow=diamondThinstartSize=12;endArrow=openThin;endSize=12;strokeColor=#595959;exitX=1.000;exitY=0.320;exitDx=0;exitDy=0;entryX=0.000;entryY=0.158;entryDx=0;entryDy=0;" parent="1" source="node3" target="node7" edge="1">
          <mxGeometry width="50" height="50" relative="1" as="geometry">
            <Array as="points" />
          </mxGeometry>
        </mxCell>
        <mxCell id="edge34" value="" style="html=1;rounded=1;edgeStyle=orthogonalEdgeStyle;dashed=0;startArrow=diamondThinstartSize=12;endArrow=openThin;endSize=12;strokeColor=#595959;exitX=0.890;exitY=1.000;exitDx=0;exitDy=0;entryX=0.000;entryY=0.210;entryDx=0;entryDy=0;" parent="1" source="node3" target="node11" edge="1">
          <mxGeometry width="50" height="50" relative="1" as="geometry">
            <Array as="points">
              <mxPoint x="956" y="4138" />
              <mxPoint x="2127" y="4138" />
              <mxPoint x="2127" y="4300" />
            </Array>
          </mxGeometry>
        </mxCell>
        <mxCell id="edge18" value="" style="html=1;rounded=1;edgeStyle=orthogonalEdgeStyle;dashed=0;startArrow=diamondThinstartSize=12;endArrow=openThin;endSize=12;strokeColor=#595959;exitX=1.000;exitY=0.344;exitDx=0;exitDy=0;entryX=0.000;entryY=0.500;entryDx=0;entryDy=0;" parent="1" source="node25" target="node13" edge="1">
          <mxGeometry width="50" height="50" relative="1" as="geometry">
            <Array as="points" />
          </mxGeometry>
        </mxCell>
        <mxCell id="edge21" value="" style="html=1;rounded=1;edgeStyle=orthogonalEdgeStyle;dashed=0;startArrow=diamondThinstartSize=12;endArrow=openThin;endSize=12;strokeColor=#595959;exitX=0.462;exitY=0.000;exitDx=0;exitDy=0;entryX=0.119;entryY=1.000;entryDx=0;entryDy=0;" parent="1" source="node25" target="node24" edge="1">
          <mxGeometry width="50" height="50" relative="1" as="geometry">
            <Array as="points">
              <mxPoint x="2042" y="2380" />
              <mxPoint x="626" y="2380" />
              <mxPoint x="626" y="4099" />
              <mxPoint x="1334" y="4099" />
            </Array>
          </mxGeometry>
        </mxCell>
        <mxCell id="edge31" value="" style="html=1;rounded=1;edgeStyle=orthogonalEdgeStyle;dashed=1;startArrow=none;endArrow=openThin;endSize=12;strokeColor=#595959;exitX=0.500;exitY=1.000;exitDx=0;exitDy=0;" parent="1" source="node13" target="node18" edge="1">
          <mxGeometry width="50" height="50" relative="1" as="geometry">
            <Array as="points">
              <mxPoint x="2493" y="2848" />
              <mxPoint x="2140" y="2848" />
              <mxPoint x="2140" y="3305" />
            </Array>
          </mxGeometry>
        </mxCell>
        <mxCell id="edge70" value="" style="html=1;rounded=1;edgeStyle=orthogonalEdgeStyle;dashed=0;startArrow=diamondThinstartSize=12;endArrow=openThin;endSize=12;strokeColor=#595959;exitX=0.403;exitY=0.000;exitDx=0;exitDy=0;entryX=0.968;entryY=1.000;entryDx=0;entryDy=0;" parent="1" source="node20" target="node2" edge="1">
          <mxGeometry width="50" height="50" relative="1" as="geometry">
            <Array as="points" />
          </mxGeometry>
        </mxCell>
        <mxCell id="edge38" value="" style="html=1;rounded=1;edgeStyle=orthogonalEdgeStyle;dashed=0;startArrow=diamondThinstartSize=12;endArrow=openThin;endSize=12;strokeColor=#595959;exitX=0.125;exitY=0.009;exitDx=0;exitDy=0;entryX=0.000;entryY=0.384;entryDx=0;entryDy=0;" parent="1" source="node8" target="node10" edge="1">
          <mxGeometry width="50" height="50" relative="1" as="geometry">
            <Array as="points">
              <mxPoint x="1460" y="2410" />
              <mxPoint x="656" y="2410" />
              <mxPoint x="656" y="4371" />
            </Array>
          </mxGeometry>
        </mxCell>
        <mxCell id="edge7" value="" style="html=1;rounded=1;edgeStyle=orthogonalEdgeStyle;dashed=0;startArrow=diamondThinstartSize=12;endArrow=openThin;endSize=12;strokeColor=#595959;exitX=0.831;exitY=0.000;exitDx=0;exitDy=0;entryX=0.451;entryY=1.000;entryDx=0;entryDy=0;" parent="1" source="node8" target="node22" edge="1">
          <mxGeometry width="50" height="50" relative="1" as="geometry">
            <Array as="points">
              <mxPoint x="1743" y="2365" />
              <mxPoint x="2741" y="2365" />
              <mxPoint x="2741" y="4654" />
              <mxPoint x="1799" y="4654" />
            </Array>
          </mxGeometry>
        </mxCell>
        <mxCell id="edge63" value="" style="html=1;rounded=1;edgeStyle=orthogonalEdgeStyle;dashed=0;startArrow=diamondThinstartSize=12;endArrow=openThin;endSize=12;strokeColor=#595959;exitX=0.069;exitY=1.000;exitDx=0;exitDy=0;entryX=0.500;entryY=0.000;entryDx=0;entryDy=0;" parent="1" source="node8" target="node24" edge="1">
          <mxGeometry width="50" height="50" relative="1" as="geometry">
            <Array as="points" />
          </mxGeometry>
        </mxCell>
        <mxCell id="edge36" value="" style="html=1;rounded=1;edgeStyle=orthogonalEdgeStyle;dashed=0;startArrow=diamondThinstartSize=12;endArrow=openThin;endSize=12;strokeColor=#595959;exitX=0.981;exitY=1.000;exitDx=0;exitDy=0;entryX=0.466;entryY=0.000;entryDx=0;entryDy=0;" parent="1" source="node8" target="node7" edge="1">
          <mxGeometry width="50" height="50" relative="1" as="geometry">
            <Array as="points" />
          </mxGeometry>
        </mxCell>
        <mxCell id="edge40" value="" style="html=1;rounded=1;edgeStyle=orthogonalEdgeStyle;dashed=0;startArrow=diamondThinstartSize=12;endArrow=openThin;endSize=12;strokeColor=#595959;exitX=0.327;exitY=0.002;exitDx=0;exitDy=0;entryX=0.460;entryY=1.000;entryDx=0;entryDy=0;" parent="1" source="node8" target="node21" edge="1">
          <mxGeometry width="50" height="50" relative="1" as="geometry">
            <Array as="points">
              <mxPoint x="1541" y="2395" />
              <mxPoint x="641" y="2395" />
              <mxPoint x="641" y="4628" />
              <mxPoint x="1371" y="4628" />
            </Array>
          </mxGeometry>
        </mxCell>
        <mxCell id="edge26" value="" style="html=1;rounded=1;edgeStyle=orthogonalEdgeStyle;dashed=0;startArrow=diamondThinstartSize=12;endArrow=openThin;endSize=12;strokeColor=#595959;exitX=1.000;exitY=0.500;exitDx=0;exitDy=0;entryX=0.000;entryY=0.145;entryDx=0;entryDy=0;" parent="1" source="node8" target="node6" edge="1">
          <mxGeometry width="50" height="50" relative="1" as="geometry">
            <Array as="points" />
          </mxGeometry>
        </mxCell>
        <mxCell id="edge9" value="" style="html=1;rounded=1;edgeStyle=orthogonalEdgeStyle;dashed=0;startArrow=diamondThinstartSize=12;endArrow=openThin;endSize=12;strokeColor=#595959;exitX=0.641;exitY=1.000;exitDx=0;exitDy=0;entryX=0.000;entryY=0.500;entryDx=0;entryDy=0;" parent="1" source="node8" target="node11" edge="1">
          <mxGeometry width="50" height="50" relative="1" as="geometry">
            <Array as="points">
              <mxPoint x="1667" y="3414" />
              <mxPoint x="1986" y="3414" />
              <mxPoint x="1986" y="4325" />
            </Array>
          </mxGeometry>
        </mxCell>
        <mxCell id="edge29" value="" style="html=1;rounded=1;edgeStyle=orthogonalEdgeStyle;dashed=0;startArrow=diamondThinstartSize=12;endArrow=openThin;endSize=12;strokeColor=#595959;exitX=1.000;exitY=0.377;exitDx=0;exitDy=0;entryX=0.000;entryY=0.500;entryDx=0;entryDy=0;" parent="1" source="node8" target="node23" edge="1">
          <mxGeometry width="50" height="50" relative="1" as="geometry">
            <Array as="points" />
          </mxGeometry>
        </mxCell>
        <mxCell id="edge73" value="" style="html=1;rounded=1;edgeStyle=orthogonalEdgeStyle;dashed=1;startArrow=none;endArrow=openThin;endSize=12;strokeColor=#595959;exitX=0.927;exitY=0.000;exitDx=0;exitDy=0;entryX=0.355;entryY=1.001;entryDx=0;entryDy=0;" parent="1" source="node7" target="node18" edge="1">
          <mxGeometry width="50" height="50" relative="1" as="geometry">
            <Array as="points" />
          </mxGeometry>
        </mxCell>
        <mxCell id="edge14" value="" style="html=1;rounded=1;edgeStyle=orthogonalEdgeStyle;dashed=0;startArrow=diamondThinstartSize=12;endArrow=openThin;endSize=12;strokeColor=#595959;exitX=0.000;exitY=0.121;exitDx=0;exitDy=0;entryX=0.730;entryY=0.000;entryDx=0;entryDy=0;" parent="1" source="node7" target="node10" edge="1">
          <mxGeometry width="50" height="50" relative="1" as="geometry">
            <Array as="points">
              <mxPoint x="1014" y="3697" />
            </Array>
          </mxGeometry>
        </mxCell>
        <mxCell id="edge49" value="" style="html=1;rounded=1;edgeStyle=orthogonalEdgeStyle;dashed=0;startArrow=diamondThinstartSize=12;endArrow=openThin;endSize=12;strokeColor=#595959;exitX=0.568;exitY=1.000;exitDx=0;exitDy=0;entryX=0.568;entryY=0.000;entryDx=0;entryDy=0;" parent="1" source="node7" target="node22" edge="1">
          <mxGeometry width="50" height="50" relative="1" as="geometry">
            <Array as="points" />
          </mxGeometry>
        </mxCell>
        <mxCell id="edge0" value="" style="html=1;rounded=1;edgeStyle=orthogonalEdgeStyle;dashed=1;startArrow=none;endArrow=openThin;endSize=12;strokeColor=#595959;exitX=1.000;exitY=0.500;exitDx=0;exitDy=0;entryX=0.158;entryY=0.014;entryDx=0;entryDy=0;" parent="1" source="node7" target="node4" edge="1">
          <mxGeometry width="50" height="50" relative="1" as="geometry">
            <Array as="points">
              <mxPoint x="2108" y="3849" />
              <mxPoint x="2108" y="4394" />
              <mxPoint x="2429" y="4394" />
            </Array>
          </mxGeometry>
        </mxCell>
        <mxCell id="edge52" value="" style="html=1;rounded=1;edgeStyle=orthogonalEdgeStyle;dashed=1;startArrow=none;endArrow=openThin;endSize=12;strokeColor=#595959;exitX=0.000;exitY=0.195;exitDx=0;exitDy=0;entryX=1.000;entryY=0.350;entryDx=0;entryDy=0;" parent="1" source="node7" target="node3" edge="1">
          <mxGeometry width="50" height="50" relative="1" as="geometry">
            <Array as="points" />
          </mxGeometry>
        </mxCell>
        <mxCell id="edge11" value="" style="html=1;rounded=1;edgeStyle=orthogonalEdgeStyle;dashed=0;startArrow=diamondThinstartSize=12;endArrow=openThin;endSize=12;strokeColor=#595959;exitX=0.547;exitY=0.000;exitDx=0;exitDy=0;entryX=0.451;entryY=1.000;entryDx=0;entryDy=0;" parent="1" source="node7" target="node13" edge="1">
          <mxGeometry width="50" height="50" relative="1" as="geometry">
            <Array as="points">
              <mxPoint x="1828" y="2745" />
              <mxPoint x="2477" y="2745" />
            </Array>
          </mxGeometry>
        </mxCell>
        <mxCell id="edge67" value="" style="html=1;rounded=1;edgeStyle=orthogonalEdgeStyle;dashed=0;startArrow=diamondThinstartSize=12;endArrow=openThin;endSize=12;strokeColor=#595959;exitX=0.000;exitY=0.709;exitDx=0;exitDy=0;entryX=1.000;entryY=0.500;entryDx=0;entryDy=0;" parent="1" source="node7" target="node24" edge="1">
          <mxGeometry width="50" height="50" relative="1" as="geometry">
            <Array as="points" />
          </mxGeometry>
        </mxCell>
        <mxCell id="edge10" value="" style="html=1;rounded=1;edgeStyle=orthogonalEdgeStyle;dashed=0;startArrow=diamondThinstartSize=12;endArrow=openThin;endSize=12;strokeColor=#595959;exitX=0.534;exitY=1.000;exitDx=0;exitDy=0;entryX=0.706;entryY=0.000;entryDx=0;entryDy=0;" parent="1" source="node7" target="node21" edge="1">
          <mxGeometry width="50" height="50" relative="1" as="geometry">
            <Array as="points">
              <mxPoint x="1824" y="4084" />
              <mxPoint x="1463" y="4084" />
            </Array>
          </mxGeometry>
        </mxCell>
        <mxCell id="edge13" value="" style="html=1;rounded=1;edgeStyle=orthogonalEdgeStyle;dashed=1;startArrow=none;endArrow=openThin;endSize=12;strokeColor=#595959;exitX=0.907;exitY=1.000;exitDx=0;exitDy=0;entryX=0.933;entryY=1.001;entryDx=0;entryDy=0;" parent="1" source="node21" target="node18" edge="1">
          <mxGeometry width="50" height="50" relative="1" as="geometry">
            <Array as="points">
              <mxPoint x="1539" y="4550" />
              <mxPoint x="2091" y="4550" />
            </Array>
          </mxGeometry>
        </mxCell>
        <mxCell id="edge72" value="" style="html=1;rounded=1;edgeStyle=orthogonalEdgeStyle;dashed=1;startArrow=none;endArrow=openThin;endSize=12;strokeColor=#595959;exitX=0.000;exitY=0.023;exitDx=0;exitDy=0;entryX=0.564;entryY=1.000;entryDx=0;entryDy=0;" parent="1" source="node21" target="node3" edge="1">
          <mxGeometry width="50" height="50" relative="1" as="geometry">
            <Array as="points">
              <mxPoint x="880" y="4255" />
            </Array>
          </mxGeometry>
        </mxCell>
        <mxCell id="edge43" value="" style="html=1;rounded=1;edgeStyle=orthogonalEdgeStyle;dashed=0;startArrow=diamondThinstartSize=12;endArrow=openThin;endSize=12;strokeColor=#595959;exitX=1.000;exitY=0.330;exitDx=0;exitDy=0;entryX=0.000;entryY=0.083;entryDx=0;entryDy=0;" parent="1" source="node21" target="node13" edge="1">
          <mxGeometry width="50" height="50" relative="1" as="geometry">
            <Array as="points">
              <mxPoint x="1595" y="4341" />
              <mxPoint x="1595" y="3414" />
              <mxPoint x="1362" y="3414" />
              <mxPoint x="1362" y="2520" />
            </Array>
          </mxGeometry>
        </mxCell>
        <mxCell id="edge64" value="" style="html=1;rounded=1;edgeStyle=orthogonalEdgeStyle;dashed=0;startArrow=diamondThinstartSize=12;endArrow=openThin;endSize=12;strokeColor=#595959;exitX=0.678;exitY=0.000;exitDx=0;exitDy=0;entryX=0.555;entryY=1.000;entryDx=0;entryDy=0;" parent="1" source="node21" target="node24" edge="1">
          <mxGeometry width="50" height="50" relative="1" as="geometry">
            <Array as="points" />
          </mxGeometry>
        </mxCell>
        <mxCell id="edge1" value="" style="html=1;rounded=1;edgeStyle=orthogonalEdgeStyle;dashed=0;startArrow=diamondThinstartSize=12;endArrow=openThin;endSize=12;strokeColor=#595959;exitX=0.000;exitY=0.256;exitDx=0;exitDy=0;" parent="1" source="node6" target="node9" edge="1">
          <mxGeometry width="50" height="50" relative="1" as="geometry">
            <Array as="points">
              <mxPoint x="1844" y="2971" />
              <mxPoint x="1844" y="3384" />
              <mxPoint x="2062" y="3384" />
              <mxPoint x="2062" y="4474" />
            </Array>
          </mxGeometry>
        </mxCell>
        <mxCell id="edge33" value="" style="html=1;rounded=1;edgeStyle=orthogonalEdgeStyle;dashed=0;startArrow=diamondThinstartSize=12;endArrow=openThin;endSize=12;strokeColor=#595959;exitX=0.500;exitY=0.000;exitDx=0;exitDy=0;entryX=0.571;entryY=1.000;entryDx=0;entryDy=0;" parent="1" source="node6" target="node13" edge="1">
          <mxGeometry width="50" height="50" relative="1" as="geometry">
            <Array as="points" />
          </mxGeometry>
        </mxCell>
        <mxCell id="edge41" value="" style="html=1;rounded=1;edgeStyle=orthogonalEdgeStyle;dashed=1;startArrow=none;endArrow=openThin;endSize=12;strokeColor=#595959;exitX=0.000;exitY=0.081;exitDx=0;exitDy=0;entryX=0.169;entryY=0.000;entryDx=0;entryDy=0;" parent="1" source="node6" target="node24" edge="1">
          <mxGeometry width="50" height="50" relative="1" as="geometry">
            <Array as="points">
              <mxPoint x="2304" y="2930" />
              <mxPoint x="2304" y="2425" />
              <mxPoint x="1347" y="2425" />
            </Array>
          </mxGeometry>
        </mxCell>
        <mxCell id="edge32" value="" style="html=1;rounded=1;edgeStyle=orthogonalEdgeStyle;dashed=0;startArrow=diamondThinstartSize=12;endArrow=openThin;endSize=12;strokeColor=#595959;exitX=0.106;exitY=1.000;exitDx=0;exitDy=0;entryX=0.500;entryY=0.000;entryDx=0;entryDy=0;" parent="1" source="node6" target="node17" edge="1">
          <mxGeometry width="50" height="50" relative="1" as="geometry">
            <Array as="points" />
          </mxGeometry>
        </mxCell>
        <mxCell id="edge59" value="" style="html=1;rounded=1;edgeStyle=orthogonalEdgeStyle;dashed=0;startArrow=diamondThinstartSize=12;endArrow=openThin;endSize=12;strokeColor=#595959;exitX=1.000;exitY=0.564;exitDx=0;exitDy=0;entryX=0.291;entryY=0.000;entryDx=0;entryDy=0;" parent="1" source="node6" target="node0" edge="1">
          <mxGeometry width="50" height="50" relative="1" as="geometry">
            <Array as="points">
              <mxPoint x="2754" y="3043" />
              <mxPoint x="2754" y="2350" />
              <mxPoint x="611" y="2350" />
              <mxPoint x="611" y="3527" />
              <mxPoint x="1111" y="3527" />
            </Array>
          </mxGeometry>
        </mxCell>
        <mxCell id="edge71" value="" style="html=1;rounded=1;edgeStyle=orthogonalEdgeStyle;dashed=1;startArrow=none;endArrow=openThin;endSize=12;strokeColor=#595959;exitX=0.000;exitY=0.236;exitDx=0;exitDy=0;entryX=0.000;entryY=0.090;entryDx=0;entryDy=0;" parent="1" source="node19" target="node10" edge="1">
          <mxGeometry width="50" height="50" relative="1" as="geometry">
            <Array as="points">
              <mxPoint x="731" y="2630" />
              <mxPoint x="731" y="4295" />
            </Array>
          </mxGeometry>
        </mxCell>
        <mxCell id="edge69" value="" style="html=1;rounded=1;edgeStyle=orthogonalEdgeStyle;dashed=1;startArrow=none;endArrow=openThin;endSize=12;strokeColor=#595959;exitX=0.000;exitY=0.144;exitDx=0;exitDy=0;entryX=0.500;entryY=1.000;entryDx=0;entryDy=0;" parent="1" source="node19" target="node22" edge="1">
          <mxGeometry width="50" height="50" relative="1" as="geometry">
            <Array as="points">
              <mxPoint x="686" y="2600" />
              <mxPoint x="686" y="4563" />
              <mxPoint x="1814" y="4563" />
            </Array>
          </mxGeometry>
        </mxCell>
        <mxCell id="edge51" value="" style="html=1;rounded=1;edgeStyle=orthogonalEdgeStyle;dashed=0;startArrow=diamondThinstartSize=12;endArrow=openThin;endSize=12;strokeColor=#595959;exitX=0.500;exitY=0.000;exitDx=0;exitDy=0;entryX=0.068;entryY=0.000;entryDx=0;entryDy=0;" parent="1" source="node19" target="node25" edge="1">
          <mxGeometry width="50" height="50" relative="1" as="geometry">
            <Array as="points">
              <mxPoint x="1218" y="2485" />
              <mxPoint x="1884" y="2485" />
            </Array>
          </mxGeometry>
        </mxCell>
        <mxCell id="edge4" value="" style="html=1;rounded=1;edgeStyle=orthogonalEdgeStyle;dashed=0;startArrow=diamondThinstartSize=12;endArrow=openThin;endSize=12;strokeColor=#595959;exitX=0.586;exitY=0.000;exitDx=0;exitDy=0;entryX=0.000;entryY=0.155;entryDx=0;entryDy=0;" parent="1" source="node19" target="node13" edge="1">
          <mxGeometry width="50" height="50" relative="1" as="geometry">
            <Array as="points">
              <mxPoint x="1233" y="2535" />
            </Array>
          </mxGeometry>
        </mxCell>
        <mxCell id="edge75" value="" style="html=1;rounded=1;edgeStyle=orthogonalEdgeStyle;dashed=0;startArrow=diamondThinstartSize=12;endArrow=openThin;endSize=12;strokeColor=#595959;exitX=1.000;exitY=0.500;exitDx=0;exitDy=0;entryX=0.000;entryY=0.210;entryDx=0;entryDy=0;" parent="1" source="node19" target="node8" edge="1">
          <mxGeometry width="50" height="50" relative="1" as="geometry">
            <Array as="points" />
          </mxGeometry>
        </mxCell>
        <mxCell id="edge12" value="" style="html=1;rounded=1;edgeStyle=orthogonalEdgeStyle;dashed=0;startArrow=diamondThinstartSize=12;endArrow=openThin;endSize=12;strokeColor=#595959;exitX=1.000;exitY=0.546;exitDx=0;exitDy=0;entryX=0.335;entryY=0.000;entryDx=0;entryDy=0;" parent="1" source="node19" target="node24" edge="1">
          <mxGeometry width="50" height="50" relative="1" as="geometry">
            <Array as="points">
              <mxPoint x="1392" y="2732" />
            </Array>
          </mxGeometry>
        </mxCell>
        <mxCell id="edge68" value="" style="html=1;rounded=1;edgeStyle=orthogonalEdgeStyle;dashed=0;startArrow=diamondThinstartSize=12;endArrow=openThin;endSize=12;strokeColor=#595959;exitX=1.000;exitY=0.591;exitDx=0;exitDy=0;entryX=0.000;entryY=0.083;entryDx=0;entryDy=0;" parent="1" source="node19" target="node7" edge="1">
          <mxGeometry width="50" height="50" relative="1" as="geometry">
            <Array as="points">
              <mxPoint x="1322" y="2747" />
              <mxPoint x="1322" y="3682" />
            </Array>
          </mxGeometry>
        </mxCell>
        <mxCell id="edge16" value="" style="html=1;rounded=1;edgeStyle=orthogonalEdgeStyle;dashed=1;startArrow=none;endArrow=openThin;endSize=12;strokeColor=#595959;exitX=0.000;exitY=0.190;exitDx=0;exitDy=0;entryX=0.066;entryY=1.000;entryDx=0;entryDy=0;" parent="1" source="node19" target="node21" edge="1">
          <mxGeometry width="50" height="50" relative="1" as="geometry">
            <Array as="points">
              <mxPoint x="716" y="2615" />
              <mxPoint x="716" y="4548" />
              <mxPoint x="1223" y="4548" />
            </Array>
          </mxGeometry>
        </mxCell>
        <mxCell id="edge27" value="" style="html=1;rounded=1;edgeStyle=orthogonalEdgeStyle;dashed=0;startArrow=diamondThinstartSize=12;endArrow=openThin;endSize=12;strokeColor=#595959;exitX=0.414;exitY=0.000;exitDx=0;exitDy=0;entryX=1.000;entryY=0.500;entryDx=0;entryDy=0;" parent="1" source="node19" target="node6" edge="1">
          <mxGeometry width="50" height="50" relative="1" as="geometry">
            <Array as="points">
              <mxPoint x="1203" y="2470" />
              <mxPoint x="2664" y="2470" />
              <mxPoint x="2664" y="3028" />
            </Array>
          </mxGeometry>
        </mxCell>
        <mxCell id="edge24" value="" style="html=1;rounded=1;edgeStyle=orthogonalEdgeStyle;dashed=0;startArrow=diamondThinstartSize=12;endArrow=openThin;endSize=12;strokeColor=#595959;exitX=0.000;exitY=0.099;exitDx=0;exitDy=0;entryX=0.566;entryY=1.000;entryDx=0;entryDy=0;" parent="1" source="node19" target="node11" edge="1">
          <mxGeometry width="50" height="50" relative="1" as="geometry">
            <Array as="points">
              <mxPoint x="671" y="2585" />
              <mxPoint x="671" y="4593" />
              <mxPoint x="2368" y="4593" />
            </Array>
          </mxGeometry>
        </mxCell>
        <mxCell id="edge23" value="" style="html=1;rounded=1;edgeStyle=orthogonalEdgeStyle;dashed=0;startArrow=diamondThinstartSize=12;endArrow=openThin;endSize=12;strokeColor=#595959;exitX=1.000;exitY=0.500;exitDx=0;exitDy=0;entryX=0.279;entryY=0.000;entryDx=0;entryDy=0;" parent="1" source="node1" target="node24" edge="1">
          <mxGeometry width="50" height="50" relative="1" as="geometry">
            <Array as="points">
              <mxPoint x="1377" y="3435" />
            </Array>
          </mxGeometry>
        </mxCell>
        <mxCell id="edge60" value="" style="html=1;rounded=1;edgeStyle=orthogonalEdgeStyle;dashed=0;startArrow=diamondThinstartSize=12;endArrow=openThin;endSize=12;strokeColor=#595959;exitX=0.626;exitY=1.000;exitDx=0;exitDy=0;entryX=0.500;entryY=1.000;entryDx=0;entryDy=0;" parent="1" source="node1" target="node7" edge="1">
          <mxGeometry width="50" height="50" relative="1" as="geometry">
            <Array as="points">
              <mxPoint x="999" y="4068" />
              <mxPoint x="1814" y="4068" />
            </Array>
          </mxGeometry>
        </mxCell>
        <mxCell id="edge28" value="" style="html=1;rounded=1;edgeStyle=orthogonalEdgeStyle;dashed=0;startArrow=diamondThinstartSize=12;endArrow=openThin;endSize=12;strokeColor=#595959;exitX=0.000;exitY=0.500;exitDx=0;exitDy=0;entryX=1.000;entryY=0.436;entryDx=0;entryDy=0;" parent="1" source="node1" target="node6" edge="1">
          <mxGeometry width="50" height="50" relative="1" as="geometry">
            <Array as="points">
              <mxPoint x="701" y="3435" />
              <mxPoint x="701" y="2440" />
              <mxPoint x="2725" y="2440" />
              <mxPoint x="2725" y="3013" />
            </Array>
          </mxGeometry>
        </mxCell>
        <mxCell id="edge17" value="" style="html=1;rounded=1;edgeStyle=orthogonalEdgeStyle;dashed=0;startArrow=diamondThinstartSize=12;endArrow=openThin;endSize=12;strokeColor=#595959;exitX=1.000;exitY=0.670;exitDx=0;exitDy=0;" parent="1" source="node1" edge="1">
          <mxGeometry width="50" height="50" relative="1" as="geometry">
            <Array as="points">
              <mxPoint x="2016" y="3450" />
              <mxPoint x="2016" y="4310" />
            </Array>
            <mxPoint x="2166" y="4310" as="targetPoint" />
          </mxGeometry>
        </mxCell>
        <mxCell id="edge5" value="" style="html=1;rounded=1;edgeStyle=orthogonalEdgeStyle;dashed=1;startArrow=none;endArrow=openThin;endSize=12;strokeColor=#595959;exitX=0.500;exitY=0.000;exitDx=0;exitDy=0;" parent="1" source="node12" target="node18" edge="1">
          <mxGeometry width="50" height="50" relative="1" as="geometry">
            <Array as="points">
              <mxPoint x="2351" y="3771" />
              <mxPoint x="2140" y="3771" />
              <mxPoint x="2140" y="3335" />
            </Array>
          </mxGeometry>
        </mxCell>
        <mxCell id="edge61" value="" style="html=1;rounded=1;edgeStyle=orthogonalEdgeStyle;dashed=0;startArrow=diamondThinstartSize=12;endArrow=openThin;endSize=12;strokeColor=#595959;exitX=0.000;exitY=0.497;exitDx=0;exitDy=0;entryX=1.000;entryY=0.045;entryDx=0;entryDy=0;" parent="1" source="node12" target="node3" edge="1">
          <mxGeometry width="50" height="50" relative="1" as="geometry">
            <Array as="points">
              <mxPoint x="2076" y="4043" />
              <mxPoint x="2076" y="3575" />
            </Array>
          </mxGeometry>
        </mxCell>
        <mxCell id="edge22" value="" style="html=1;rounded=1;edgeStyle=orthogonalEdgeStyle;dashed=0;startArrow=diamondThinstartSize=12;endArrow=openThin;endSize=12;strokeColor=#595959;exitX=1.000;exitY=0.500;exitDx=0;exitDy=0;entryX=1.000;entryY=0.564;entryDx=0;entryDy=0;" parent="1" source="node12" target="node13" edge="1">
          <mxGeometry width="50" height="50" relative="1" as="geometry">
            <Array as="points">
              <mxPoint x="2709" y="4044" />
              <mxPoint x="2709" y="2621" />
            </Array>
          </mxGeometry>
        </mxCell>
        <mxCell id="edge45" value="" style="html=1;rounded=1;edgeStyle=orthogonalEdgeStyle;dashed=0;startArrow=diamondThinstartSize=12;endArrow=openThin;endSize=12;strokeColor=#595959;exitX=0.000;exitY=0.591;exitDx=0;exitDy=0;entryX=0.716;entryY=1.012;entryDx=0;entryDy=0;" parent="1" source="node12" target="node24" edge="1">
          <mxGeometry width="50" height="50" relative="1" as="geometry">
            <Array as="points">
              <mxPoint x="1496" y="4078" />
              <mxPoint x="1496" y="4080" />
              <mxPoint x="1494" y="4080" />
            </Array>
          </mxGeometry>
        </mxCell>
        <mxCell id="edge44" value="" style="html=1;rounded=1;edgeStyle=orthogonalEdgeStyle;dashed=0;startArrow=diamondThinstartSize=12;endArrow=openThin;endSize=12;strokeColor=#595959;exitX=0.666;exitY=0.000;exitDx=0;exitDy=0;entryX=0.500;entryY=1.000;entryDx=0;entryDy=0;" parent="1" source="node12" target="node17" edge="1">
          <mxGeometry width="50" height="50" relative="1" as="geometry">
            <Array as="points" />
          </mxGeometry>
        </mxCell>
        <mxCell id="edge53" value="" style="html=1;rounded=1;edgeStyle=orthogonalEdgeStyle;dashed=1;startArrow=none;endArrow=openThin;endSize=12;strokeColor=#595959;exitX=0.000;exitY=0.142;exitDx=0;exitDy=0;entryX=0.534;entryY=1.000;entryDx=0;entryDy=0;" parent="1" source="node11" target="node13" edge="1">
          <mxGeometry width="50" height="50" relative="1" as="geometry">
            <Array as="points">
              <mxPoint x="2153" y="4294" />
              <mxPoint x="2153" y="2876" />
              <mxPoint x="2503" y="2876" />
            </Array>
          </mxGeometry>
        </mxCell>
        <mxCell id="edge57" value="" style="html=1;rounded=1;edgeStyle=orthogonalEdgeStyle;dashed=1;startArrow=none;endArrow=openThin;endSize=12;strokeColor=#595959;exitX=0.000;exitY=0.619;exitDx=0;exitDy=0;entryX=0.234;entryY=1.000;entryDx=0;entryDy=0;" parent="1" source="node11" target="node24" edge="1">
          <mxGeometry width="50" height="50" relative="1" as="geometry">
            <Array as="points">
              <mxPoint x="2142" y="4336" />
              <mxPoint x="2142" y="4619" />
              <mxPoint x="1148" y="4619" />
              <mxPoint x="1148" y="4212" />
              <mxPoint x="1365" y="4212" />
            </Array>
          </mxGeometry>
        </mxCell>
        <mxCell id="edge39" value="" style="html=1;rounded=1;edgeStyle=orthogonalEdgeStyle;dashed=0;startArrow=diamondThinstartSize=12;endArrow=openThin;endSize=12;strokeColor=#595959;exitX=0.500;exitY=0.000;exitDx=0;exitDy=0;entryX=0.000;entryY=0.500;entryDx=0;entryDy=0;" parent="1" source="node11" target="node6" edge="1">
          <mxGeometry width="50" height="50" relative="1" as="geometry">
            <Array as="points">
              <mxPoint x="2344" y="4267" />
              <mxPoint x="2160" y="4267" />
              <mxPoint x="2160" y="3028" />
            </Array>
          </mxGeometry>
        </mxCell>
        <mxCell id="edge42" value="" style="html=1;rounded=1;edgeStyle=orthogonalEdgeStyle;dashed=0;startArrow=diamondThinstartSize=12;endArrow=openThin;endSize=12;strokeColor=#595959;exitX=0.529;exitY=0.001;exitDx=0;exitDy=0;entryX=0.510;entryY=1.000;entryDx=0;entryDy=0;" parent="1" source="node11" target="node12" edge="1">
          <mxGeometry width="50" height="50" relative="1" as="geometry">
            <Array as="points" />
          </mxGeometry>
        </mxCell>
        <mxCell id="edge35" value="" style="html=1;rounded=1;edgeStyle=orthogonalEdgeStyle;dashed=1;startArrow=none;endArrow=openThin;endSize=12;strokeColor=#595959;exitX=0.000;exitY=0.169;exitDx=0;exitDy=0;" parent="1" source="node17" target="node18" edge="1">
          <mxGeometry width="50" height="50" relative="1" as="geometry">
            <Array as="points" />
          </mxGeometry>
        </mxCell>
        <mxCell id="edge37" value="" style="html=1;rounded=1;edgeStyle=orthogonalEdgeStyle;dashed=0;startArrow=diamondThinstartSize=12;endArrow=openThin;endSize=12;strokeColor=#595959;exitX=0.788;exitY=1.000;exitDx=0;exitDy=0;" parent="1" source="node17" target="node9" edge="1">
          <mxGeometry width="50" height="50" relative="1" as="geometry">
            <Array as="points">
              <mxPoint x="2547" y="4450" />
            </Array>
          </mxGeometry>
        </mxCell>
        <mxCell id="edge54" value="" style="html=1;rounded=1;edgeStyle=orthogonalEdgeStyle;dashed=1;startArrow=none;endArrow=openThin;endSize=12;strokeColor=#595959;exitX=1.000;exitY=0.500;exitDx=0;exitDy=0;entryX=0.000;entryY=0.500;entryDx=0;entryDy=0;" parent="1" source="node17" target="node3" edge="1">
          <mxGeometry width="50" height="50" relative="1" as="geometry">
            <Array as="points">
              <mxPoint x="2661" y="3493" />
              <mxPoint x="2661" y="4639" />
              <mxPoint x="611" y="4639" />
              <mxPoint x="611" y="3801" />
            </Array>
          </mxGeometry>
        </mxCell>
        <mxCell id="edge66" value="" style="html=1;rounded=1;edgeStyle=orthogonalEdgeStyle;dashed=0;startArrow=diamondThinstartSize=12;endArrow=openThin;endSize=12;strokeColor=#595959;exitX=0.404;exitY=0.000;exitDx=0;exitDy=0;entryX=0.086;entryY=1.000;entryDx=0;entryDy=0;" parent="1" source="node17" target="node13" edge="1">
          <mxGeometry width="50" height="50" relative="1" as="geometry">
            <Array as="points" />
          </mxGeometry>
        </mxCell>
        <mxCell id="edge30" value="" style="html=1;rounded=1;edgeStyle=orthogonalEdgeStyle;dashed=0;startArrow=diamondThinstartSize=12;endArrow=openThin;endSize=12;strokeColor=#595959;exitX=0.000;exitY=0.565;exitDx=0;exitDy=0;entryX=0.610;entryY=0.000;entryDx=0;entryDy=0;" parent="1" source="node17" target="node24" edge="1">
          <mxGeometry width="50" height="50" relative="1" as="geometry">
            <Array as="points">
              <mxPoint x="1467" y="3527" />
            </Array>
          </mxGeometry>
        </mxCell>
        <mxCell id="edge6" value="" style="html=1;rounded=1;edgeStyle=orthogonalEdgeStyle;dashed=0;startArrow=diamondThinstartSize=12;endArrow=openThin;endSize=12;strokeColor=#595959;exitX=0.720;exitY=0.000;exitDx=0;exitDy=0;entryX=0.500;entryY=1.000;entryDx=0;entryDy=0;" parent="1" source="node17" target="node6" edge="1">
          <mxGeometry width="50" height="50" relative="1" as="geometry">
            <Array as="points" />
          </mxGeometry>
        </mxCell>
        <mxCell id="edge50" value="" style="html=1;rounded=1;edgeStyle=orthogonalEdgeStyle;dashed=1;startArrow=none;endArrow=openThin;endSize=12;strokeColor=#595959;exitX=0.000;exitY=0.743;exitDx=0;exitDy=0;entryX=0.423;entryY=0.000;entryDx=0;entryDy=0;" parent="1" source="node17" target="node0" edge="1">
          <mxGeometry width="50" height="50" relative="1" as="geometry">
            <Array as="points">
              <mxPoint x="1141" y="3620" />
            </Array>
          </mxGeometry>
        </mxCell>
        <mxCell id="edge48" value="" style="html=1;rounded=1;edgeStyle=orthogonalEdgeStyle;dashed=0;startArrow=diamondThinstartSize=12;endArrow=openThin;endSize=12;strokeColor=#595959;exitX=0.520;exitY=1.000;exitDx=0;exitDy=0;entryX=1.000;entryY=0.807;entryDx=0;entryDy=0;" parent="1" source="node0" target="node6" edge="1">
          <mxGeometry width="50" height="50" relative="1" as="geometry">
            <Array as="points">
              <mxPoint x="1163" y="4084" />
              <mxPoint x="596" y="4084" />
              <mxPoint x="596" y="4669" />
              <mxPoint x="2771" y="4669" />
              <mxPoint x="2771" y="3100" />
            </Array>
          </mxGeometry>
        </mxCell>
        <mxCell id="edge3" value="" style="html=1;rounded=1;edgeStyle=orthogonalEdgeStyle;dashed=1;startArrow=none;endArrow=openThin;endSize=12;strokeColor=#595959;exitX=0.357;exitY=0.000;exitDx=0;exitDy=0;entryX=0.000;entryY=0.628;entryDx=0;entryDy=0;" parent="1" source="node0" target="node17" edge="1">
          <mxGeometry width="50" height="50" relative="1" as="geometry">
            <Array as="points">
              <mxPoint x="1126" y="3560" />
            </Array>
          </mxGeometry>
        </mxCell>
        <mxCell id="DaWfAt377mtqMCvyxTNU-2" value="" style="html=1;rounded=1;edgeStyle=orthogonalEdgeStyle;dashed=1;startArrow=none;endArrow=openThin;endSize=12;strokeColor=#595959;exitX=0.25;exitY=1;exitDx=0;exitDy=0;" edge="1" parent="1" source="node15">
          <mxGeometry width="50" height="50" relative="1" as="geometry">
            <Array as="points" />
            <mxPoint x="1196" y="3119" as="sourcePoint" />
            <mxPoint x="1133" y="3170" as="targetPoint" />
          </mxGeometry>
        </mxCell>
      </root>
    </mxGraphModel>
  </diagram>
</mxfile>
